<?xml version="1.0" standalone="no"?>
<!DOCTYPE svg PUBLIC "-//W3C//DTD SVG 20010904//EN"
 "http://www.w3.org/TR/2001/REC-SVG-20010904/DTD/svg10.dtd">
<svg version="1.0" xmlns="http://www.w3.org/2000/svg"
 width="1080.000000pt" height="1080.000000pt" viewBox="0 0 1080.000000 1080.000000"
 preserveAspectRatio="xMidYMid meet">
<metadata>
Created by potrace 1.14, written by Peter Selinger 2001-2017
</metadata>
<g transform="translate(0.000000,1080.000000) scale(0.100000,-0.100000)"
fill="#000000" stroke="none">
<path d="M4436 10780 c-38 -10 -74 -16 -80 -14 -16 6 -242 -69 -322 -107 -34
-16 -65 -29 -69 -29 -10 0 -99 -43 -105 -51 -3 -4 -41 -19 -85 -34 -114 -38
-304 -151 -287 -170 4 -5 2 -5 -4 -2 -10 6 -55 -21 -74 -43 -3 -3 -22 -14 -43
-24 -26 -12 -37 -22 -33 -32 3 -8 2 -13 -3 -10 -5 3 -14 -1 -21 -9 -7 -8 -17
-15 -22 -15 -20 0 -143 -119 -196 -190 -30 -41 -86 -116 -124 -167 -96 -128
-189 -284 -267 -446 -60 -126 -68 -137 -89 -132 -13 3 -43 -3 -67 -14 l-45
-20 -46 26 c-63 35 -182 43 -234 16 -50 -26 -99 -98 -149 -220 -25 -60 -82
-189 -127 -288 -45 -99 -109 -248 -143 -331 -33 -84 -81 -185 -107 -224 -57
-89 -134 -259 -198 -440 -26 -74 -54 -151 -62 -170 -24 -60 -43 -161 -50 -265
-5 -84 -10 -106 -32 -140 -15 -22 -25 -44 -24 -48 1 -5 -1 -6 -6 -3 -5 3 -58
-45 -118 -107 -60 -62 -189 -195 -288 -296 -98 -101 -189 -199 -202 -218 -26
-38 -31 -85 -14 -129 11 -27 145 -164 161 -164 5 0 26 -15 46 -33 21 -18 49
-41 63 -50 142 -97 285 -187 298 -187 4 0 26 -15 50 -34 l42 -34 4 -169 c4
-221 42 -392 139 -628 20 -49 27 -91 37 -225 29 -397 115 -867 169 -924 27
-29 53 -94 46 -115 -9 -29 24 -132 72 -221 l46 -86 -37 -51 c-20 -29 -40 -53
-45 -55 -4 -2 -26 -28 -49 -59 -33 -44 -53 -90 -91 -205 -27 -82 -47 -152 -44
-157 2 -4 29 -23 58 -42 59 -37 94 -91 96 -147 l1 -33 11 27 c13 33 23 34 56
9 l25 -19 -36 -41 c-75 -87 -198 -344 -198 -413 0 -29 -7 -83 -25 -193 -4 -23
1 -17 22 25 24 46 33 56 63 62 59 13 282 39 287 34 8 -8 -16 -44 -97 -141
-117 -141 -133 -163 -124 -176 4 -7 3 -9 -4 -5 -6 4 -34 -30 -68 -81 -32 -49
-72 -106 -91 -129 -18 -23 -33 -46 -33 -51 0 -6 -7 -16 -15 -23 -15 -13 -19
-4 -18 38 1 6 -3 12 -8 12 -5 0 -5 8 -2 17 6 14 3 14 -20 -3 -30 -22 -31 -26
-17 -110 9 -56 8 -67 -21 -145 -126 -340 -241 -949 -226 -1192 7 -108 20 -154
54 -184 28 -26 68 -30 77 -8 4 10 -1 15 -15 15 -33 0 -43 44 -43 185 0 226 57
595 154 1000 33 135 45 165 54 124 3 -13 12 -60 22 -104 19 -89 17 -177 -11
-645 -23 -386 -35 -517 -56 -606 -10 -45 -19 -84 -19 -88 0 -3 1872 -6 4161
-6 3957 0 4160 1 4156 18 -3 9 -9 35 -13 57 -4 22 -8 46 -10 54 -2 13 -9 84
-50 531 -28 308 -83 609 -148 815 -14 44 -43 149 -65 233 -51 191 -97 299
-184 431 -74 111 -92 166 -63 190 21 18 25 13 75 -79 43 -81 106 -236 196
-482 81 -219 140 -372 207 -538 95 -231 105 -259 127 -365 33 -163 69 -316 74
-322 14 -14 37 59 31 99 l-5 43 25 -29 c13 -16 27 -44 30 -61 4 -17 13 -40 21
-51 14 -18 14 -17 15 12 0 31 -36 160 -50 179 -11 14 -133 326 -155 395 -10
30 -30 80 -46 110 -34 66 -58 126 -204 515 -115 306 -211 536 -248 590 -34 51
-90 105 -108 105 -34 0 -46 -10 -41 -36 2 -14 0 -24 -7 -24 -6 0 -11 7 -11 15
0 38 -42 335 -56 398 -9 40 -27 97 -41 127 -25 56 -90 133 -105 124 -20 -12
-4 9 51 72 118 133 192 265 190 341 0 26 -1 26 -9 7 -20 -50 -102 -166 -111
-157 -5 5 -14 36 -20 69 -6 32 -15 66 -19 74 -4 8 -61 34 -127 56 -205 71
-328 143 -457 266 -78 74 -95 108 -54 108 23 0 132 -31 203 -57 22 -8 47 -16
55 -18 23 -5 209 -86 260 -113 25 -14 57 -31 73 -39 15 -8 27 -21 27 -28 0 -7
4 -15 8 -17 4 -1 27 -31 51 -66 24 -34 46 -61 48 -58 6 5 -34 107 -57 144 -21
34 -166 136 -181 126 -5 -3 -9 -1 -9 4 0 13 -158 84 -170 77 -6 -4 -10 -2 -10
3 0 11 -112 52 -214 79 -38 10 -71 24 -73 30 -3 7 3 25 12 39 9 15 32 71 51
126 18 55 54 135 79 178 25 44 45 83 45 89 0 5 4 11 9 13 11 4 131 246 131
264 0 8 5 14 10 14 6 0 10 6 8 13 -2 14 21 87 33 103 15 19 46 118 42 132 -3
6 1 12 7 12 7 0 10 6 7 14 -3 7 0 19 6 25 6 6 8 11 4 11 -4 0 0 17 8 38 14 38
44 157 51 202 2 14 8 45 14 70 32 137 80 551 80 694 0 43 4 66 9 61 10 -11 47
-239 56 -346 3 -35 10 -100 15 -144 12 -100 12 -503 0 -610 -5 -44 -11 -107
-15 -139 -5 -51 -33 -232 -51 -331 -18 -103 -91 -325 -128 -391 -13 -24 -21
-44 -17 -44 41 0 146 240 170 390 12 75 21 105 50 179 12 29 20 59 17 65 -2 6
-5 3 -5 -6 -1 -10 -6 -18 -12 -18 -6 0 -9 7 -5 15 4 13 23 189 25 235 0 8 5
76 12 150 10 118 7 420 -6 555 -16 182 -47 394 -80 555 -22 106 -34 192 -51
344 -7 72 -19 106 -43 126 -12 9 -27 52 -41 113 -24 108 -35 125 -20 31 6 -32
13 -79 16 -104 3 -25 12 -76 20 -115 40 -187 46 -256 40 -470 -16 -613 -132
-1164 -332 -1584 -31 -64 -59 -110 -63 -105 -5 5 2 65 14 134 44 239 58 435
62 894 3 237 0 538 -6 670 -6 133 -14 381 -17 551 -3 171 -7 316 -10 323 -2 7
-8 10 -14 7 -7 -4 -11 -330 -12 -953 -1 -629 -4 -878 -9 -740 -4 113 -14 264
-23 335 -8 70 -18 232 -21 358 -7 253 -13 316 -34 323 -11 4 -12 -19 -7 -129
3 -74 8 -204 11 -289 3 -85 11 -182 17 -214 11 -57 5 -662 -8 -861 -15 -241
-78 -618 -115 -688 -10 -21 -17 -43 -13 -48 3 -5 -2 -32 -11 -60 -16 -46 -19
-50 -43 -45 -15 3 -55 11 -89 17 -35 6 -63 14 -63 16 0 3 23 43 51 89 92 154
173 342 215 503 31 118 55 300 44 344 -5 23 -11 56 -13 72 -2 17 -5 -1 -6 -40
-5 -243 -95 -527 -263 -825 -65 -118 -76 -131 -113 -150 -23 -12 -30 -23 -30
-46 -1 -17 -7 -38 -15 -46 -8 -8 -44 -47 -80 -87 -36 -40 -76 -79 -90 -86 -14
-8 -41 -28 -60 -45 -36 -32 -70 -54 -70 -46 0 2 9 25 19 49 29 68 73 258 67
288 -3 19 1 36 15 53 16 21 21 45 25 116 4 80 2 90 -15 100 -30 15 -41 12 -41
-12 0 -13 -5 -40 -11 -61 l-10 -38 -41 36 c-23 19 -46 35 -52 35 -6 0 -38 -14
-71 -30 -32 -16 -62 -27 -66 -25 -3 3 15 80 42 172 79 272 170 733 219 1100 7
51 16 91 20 88 7 -4 24 -375 25 -535 0 -52 -4 -174 -9 -271 -9 -184 -5 -214
31 -214 12 0 17 -6 15 -20 -3 -19 -3 -19 12 1 18 25 39 137 66 349 47 378 69
841 70 1436 0 275 -3 339 -14 355 -10 13 -18 16 -25 9 -6 -6 -16 -200 -26
-485 -9 -261 -22 -560 -29 -665 l-13 -190 -2 125 c-2 234 -20 454 -36 466 -19
14 -19 49 0 239 18 193 35 457 35 563 0 75 2 83 18 78 86 -24 156 -36 260 -42
118 -7 123 -6 175 20 53 25 77 56 77 95 0 10 -16 50 -36 87 -38 75 -98 271
-84 279 8 5 106 -44 360 -179 69 -37 136 -69 150 -72 14 -4 57 -16 95 -27 39
-12 74 -21 79 -22 10 0 16 -16 40 -120 17 -75 86 -555 86 -602 0 -20 3 -24 9
-14 9 15 14 -12 26 -167 13 -149 6 -678 -10 -824 -16 -148 -31 -263 -41 -310
-4 -17 -2 -28 4 -28 6 0 11 8 11 18 0 9 7 51 16 92 66 327 85 862 46 1315 -14
153 -48 369 -85 538 l-24 109 34 14 c83 35 174 162 174 242 0 18 7 49 16 70
20 48 30 142 15 142 -6 0 -11 5 -11 11 0 5 5 7 10 4 18 -11 11 14 -9 34 -14
14 -16 21 -8 25 8 3 8 5 -2 5 -8 1 -4 8 10 20 l24 19 -19 35 c-21 41 -210 309
-274 390 -33 42 -54 88 -93 198 -27 79 -59 170 -71 202 -14 41 -17 62 -10 69
8 8 28 -25 68 -108 58 -120 80 -139 49 -42 -22 66 -223 480 -239 490 -6 4 -8
8 -4 8 9 0 -103 214 -114 218 -4 2 -6 8 -2 13 3 5 -3 9 -13 10 -10 0 -13 3 -6
5 8 4 4 20 -15 52 -15 26 -37 65 -48 87 -24 44 -33 47 -63 26 -18 -13 -19 -17
-5 -43 8 -15 20 -28 26 -28 6 0 9 -2 6 -5 -9 -9 -38 7 -38 21 0 8 -4 14 -10
14 -15 0 -12 21 7 42 17 19 16 19 -10 13 -22 -6 -27 -4 -27 10 0 15 2 16 17 4
15 -13 15 -12 3 11 l-13 25 25 -22 c30 -28 33 -28 35 -1 2 18 0 20 -7 8 -8
-12 -10 -11 -10 6 0 11 10 24 23 30 12 6 16 9 9 7 -7 -1 -12 3 -11 10 5 27
-11 64 -81 197 -13 25 -23 48 -22 53 1 4 -3 7 -8 7 -6 0 -19 17 -28 38 -10 20
-34 63 -55 95 -20 31 -37 59 -37 62 0 5 -61 97 -70 105 -6 6 -133 198 -165
250 -101 165 -120 181 -231 188 -87 5 -167 -12 -197 -43 -15 -15 -51 -30 -107
-43 -47 -12 -111 -27 -142 -35 l-57 -15 -88 96 c-99 108 -141 148 -228 218
-33 26 -103 88 -155 137 -135 127 -291 246 -325 246 -25 1 -8 -16 224 -217
l26 -22 -27 10 c-15 5 -45 19 -68 30 -22 11 -40 18 -40 15 0 -3 -9 3 -20 12
-29 25 -109 68 -233 124 -105 48 -113 50 -176 45 -150 -12 -182 -18 -188 -33
-9 -24 12 -35 79 -43 72 -8 188 -38 202 -51 6 -5 16 -9 23 -9 24 0 195 -85
290 -144 50 -31 109 -74 129 -96 21 -22 46 -40 56 -40 16 0 265 -239 354 -340
94 -106 174 -209 184 -236 6 -16 9 -26 7 -24 -2 3 -39 47 -81 98 -79 96 -103
113 -91 65 8 -35 1 -28 -62 58 -96 133 -208 232 -277 244 -17 4 -62 26 -101
51 -83 52 -216 117 -224 109 -3 -4 1 -10 9 -16 11 -6 5 -8 -19 -4 -19 3 -46
14 -60 24 -14 11 -60 34 -101 52 -41 18 -104 49 -140 68 -137 73 -139 73 -249
78 -98 4 -104 3 -76 -10 54 -26 309 -129 375 -152 36 -13 108 -43 160 -68 52
-25 120 -52 152 -60 114 -29 377 -230 482 -367 68 -89 137 -214 131 -237 -3
-13 0 -25 9 -30 36 -21 125 -253 161 -423 116 -543 195 -1055 229 -1472 30
-370 30 -378 11 -378 -16 0 -17 -10 -11 -112 8 -124 38 -427 61 -608 8 -63 22
-263 31 -445 17 -356 11 -609 -21 -864 -23 -183 -75 -446 -122 -613 -9 -31
-13 -64 -9 -73 3 -9 2 -14 -2 -11 -4 3 -25 -49 -45 -115 -60 -191 -192 -518
-251 -621 -20 -35 -54 -88 -75 -118 -49 -69 -225 -338 -240 -367 -20 -38 -11
-49 14 -18 39 47 30 25 -36 -91 -75 -133 -261 -507 -315 -634 -40 -94 -42 -96
-133 -168 -51 -39 -95 -72 -99 -72 -4 0 -43 40 -87 89 -44 49 -87 92 -96 96
-14 5 -16 22 -11 140 6 155 -7 258 -45 355 -83 212 -277 311 -494 251 -146
-39 -221 -111 -262 -251 -15 -49 -32 -122 -38 -164 -8 -56 -15 -73 -25 -69 -8
3 -31 -15 -55 -41 -23 -25 -44 -44 -47 -42 -7 7 30 109 45 124 7 7 13 17 13
22 0 5 3 15 6 24 3 9 2 16 -4 16 -20 0 -64 -56 -94 -122 -28 -60 -35 -68 -60
-68 -15 0 -28 5 -28 11 0 64 -642 808 -762 885 -21 14 -38 28 -38 33 0 4 22
46 49 93 26 46 79 152 117 236 63 141 84 170 84 120 0 -35 8 -17 35 77 15 49
31 95 36 101 12 15 148 -28 166 -52 10 -14 33 -16 155 -13 l143 4 9 -48 c4
-26 6 -51 2 -54 -7 -8 -136 21 -224 50 -48 16 -65 18 -74 9 -17 -17 -5 -25 83
-60 81 -32 422 -122 560 -147 46 -9 107 -22 134 -29 28 -8 62 -16 76 -20 25
-5 26 -9 27 -70 0 -36 5 -73 10 -82 9 -16 10 -16 20 3 23 42 33 114 22 148
-10 31 -16 34 -83 49 -89 20 -266 78 -214 70 32 -5 47 -1 97 30 32 20 69 45
82 56 233 194 301 255 457 408 64 63 130 121 146 129 17 8 55 37 85 62 30 26
60 50 66 54 8 5 11 -36 10 -141 0 -166 21 -287 54 -297 22 -7 28 -22 36 -90
l7 -53 -33 -7 c-31 -7 -246 -94 -282 -115 -10 -6 -26 -10 -36 -10 -10 0 -22
-4 -27 -8 -6 -5 -48 -19 -95 -32 -47 -13 -90 -28 -96 -34 -11 -10 -45 -110
-58 -168 -7 -30 18 -63 41 -54 8 3 17 6 19 6 2 0 2 11 -2 25 -3 14 -3 45 0 70
7 41 11 46 53 65 25 11 52 20 60 20 39 0 460 182 534 231 20 13 52 32 70 43
l34 19 -29 10 c-20 6 -41 6 -68 -3 -22 -6 -44 -8 -48 -3 -3 4 -14 37 -24 73
-9 36 -24 76 -33 90 -23 35 -28 151 -13 300 l12 126 91 64 c50 36 124 99 166
140 93 93 194 181 284 248 l67 51 0 -77 c0 -42 -7 -185 -15 -317 -8 -132 -17
-307 -20 -390 -3 -82 -18 -249 -33 -370 -24 -191 -31 -225 -52 -253 -13 -17
-27 -32 -31 -32 -9 0 -26 49 -64 175 -42 143 -44 149 -50 177 -4 19 -19 35
-50 54 -25 14 -50 33 -55 42 -9 14 -10 13 -8 -8 2 -18 14 -30 41 -43 35 -16
37 -20 37 -61 0 -67 28 -185 54 -231 13 -22 35 -82 50 -133 14 -50 38 -133 52
-183 l26 -91 -41 -85 c-41 -86 -117 -201 -201 -304 -94 -116 -339 -406 -353
-418 -14 -11 -23 -2 -32 39 -9 38 -29 97 -35 105 -4 6 -17 48 -29 95 -27 101
-122 440 -157 560 -87 294 -92 304 -144 291 -31 -8 -36 -37 -20 -111 9 -38 22
-63 43 -83 25 -23 37 -52 68 -160 101 -357 152 -524 183 -609 20 -51 40 -112
46 -135 18 -70 59 -92 108 -58 45 32 441 521 547 676 40 58 47 74 38 89 -9 13
-7 45 7 126 10 60 24 154 30 209 7 55 17 109 23 120 17 33 26 95 13 95 -9 0
-5 48 11 173 39 305 68 810 83 1422 5 204 12 434 16 512 5 96 3 147 -4 155 -5
7 -12 26 -14 42 -4 37 -21 43 -47 17 -25 -25 -27 -51 -6 -51 8 0 15 7 15 15 0
8 4 15 8 15 15 0 -15 -133 -32 -142 -11 -6 -16 -23 -16 -55 0 -46 -53 -187
-108 -283 -32 -58 -103 -170 -108 -170 -1 0 17 42 41 93 95 201 118 267 117
337 -1 36 10 153 23 260 14 107 25 212 25 232 0 28 4 38 16 38 12 0 15 9 12
37 -3 40 11 52 34 29 11 -10 17 -53 22 -153 12 -222 23 -265 26 -103 2 74 2
144 1 155 -1 11 3 41 10 67 9 39 8 52 -5 75 -13 24 -22 82 -52 321 -8 63 -24
51 -24 -18 0 -33 -4 -60 -9 -60 -4 0 -6 11 -3 25 6 35 -16 405 -33 555 -18
151 -95 626 -106 658 -5 12 -15 22 -24 22 -8 0 -15 9 -15 20 0 95 -289 1097
-327 1135 -22 23 -39 4 -23 -25 10 -18 73 -232 102 -345 3 -11 33 -120 67
-241 33 -122 61 -226 60 -230 0 -5 -33 86 -73 201 -99 286 -108 310 -256 649
-50 115 -102 236 -116 270 -27 67 -59 115 -69 104 -7 -6 52 -158 155 -403 289
-686 474 -1352 550 -1985 22 -177 9 -162 -65 72 -38 123 -70 230 -70 239 0 9
-5 22 -11 30 -6 8 -34 79 -62 159 -50 143 -160 436 -241 639 -23 57 -39 106
-37 108 9 9 -55 147 -130 280 -287 513 -743 1115 -917 1211 -35 19 -43 20 -55
8 -20 -20 -6 -59 18 -51 25 8 71 -34 184 -169 156 -187 360 -465 540 -736 198
-299 227 -345 237 -385 35 -126 156 -468 261 -735 112 -286 119 -303 115 -307
-2 -2 -15 1 -29 6 -34 13 -307 68 -412 83 l-88 12 -42 56 c-81 106 -195 278
-210 316 -39 98 -84 289 -101 427 -7 52 -25 64 -25 16 0 -38 28 -232 40 -276
5 -21 5 -35 -2 -39 -13 -8 -3 -57 23 -111 34 -70 128 -373 115 -373 -6 0 -49
-2 -96 -4 l-86 -4 -49 86 c-124 216 -240 480 -296 671 -34 116 -42 186 -59
536 -6 121 -17 288 -25 370 -8 83 -16 177 -17 210 -2 44 -7 60 -17 60 -29 0
-32 -63 -15 -307 19 -284 29 -1181 17 -1478 l-8 -195 -27 140 c-43 221 -77
832 -103 1839 -5 193 -8 227 -19 215 -2 -2 -11 -107 -19 -234 -19 -287 -16
-736 8 -1045 12 -163 -36 115 -89 510 -21 160 -33 261 -72 615 -7 55 -8 58
-16 30 -20 -65 19 -621 63 -915 5 -36 16 -113 24 -173 21 -153 77 -479 119
-687 88 -443 149 -700 258 -1090 22 -80 42 -154 45 -165 2 -11 21 -68 40 -127
36 -107 62 -144 49 -70 -13 70 -58 266 -63 276 -4 5 -1 6 5 2 7 -4 12 -11 12
-16 0 -38 165 -324 223 -387 22 -24 36 -43 32 -43 -5 0 -63 28 -129 61 -143
72 -282 167 -376 255 -67 63 -90 76 -90 51 0 -33 86 -311 112 -362 14 -26 4
-15 -74 80 -395 487 -618 908 -737 1390 -39 157 -51 244 -51 355 0 82 -2 92
-19 97 -16 4 -20 18 -26 106 -4 56 -6 216 -4 356 3 183 1 255 -7 258 -17 6
-22 -14 -35 -152 -15 -163 -6 -765 15 -966 49 -473 143 -915 259 -1214 51
-133 147 -338 168 -359 22 -23 20 9 -4 66 -127 302 -236 697 -292 1053 -9 55
-20 124 -25 154 -16 87 -11 101 11 31 101 -326 258 -633 463 -905 124 -166
361 -415 394 -415 5 0 17 -9 27 -20 19 -21 35 -26 35 -10 0 5 -13 29 -30 52
-27 40 -114 272 -108 290 2 4 23 -12 48 -35 64 -62 188 -143 294 -193 93 -44
241 -92 251 -82 3 3 -29 59 -71 124 -167 261 -328 637 -394 922 -27 116 -28
131 -20 240 5 65 14 266 21 447 6 182 12 331 13 332 1 2 26 -61 55 -138 59
-157 198 -441 243 -496 7 -9 -2 -15 -34 -24 -24 -6 -53 -14 -66 -18 -12 -3
-22 -10 -22 -16 0 -11 41 -12 110 -2 l45 6 34 -57 c105 -172 312 -424 472
-575 l112 -104 -74 -7 c-180 -18 -350 -71 -385 -120 -21 -30 -7 -30 72 0 38
15 143 43 232 64 l164 37 40 -48 c61 -72 98 -80 56 -12 -135 220 -220 393
-366 751 l-30 72 28 0 c29 0 32 -4 138 -140 31 -40 129 -155 187 -220 133
-150 418 -418 508 -478 34 -22 37 -29 37 -69 0 -39 -2 -44 -17 -38 -88 36
-225 77 -287 87 l-76 12 -30 -29 c-16 -15 -27 -32 -25 -36 7 -10 -23 -39 -39
-39 -7 0 -25 9 -39 20 -14 11 -31 20 -39 20 -10 0 -9 3 2 10 12 7 12 13 4 27
-19 31 -113 28 -203 -7 -106 -42 -182 -82 -195 -103 -9 -15 -6 -22 14 -38 l25
-20 -25 -17 c-53 -36 -120 -106 -120 -124 0 -11 -5 -28 -10 -39 -15 -28 8 -25
90 11 38 17 84 30 103 30 19 0 50 6 68 14 65 26 79 29 73 12 -11 -27 13 -17
40 17 l25 32 106 3 c100 4 346 -17 484 -40 l64 -11 -6 -101 c-3 -55 -11 -126
-16 -156 -5 -30 -15 -89 -21 -130 -16 -109 -49 -278 -65 -330 -22 -77 -102
-237 -222 -448 -64 -111 -113 -206 -109 -210 7 -7 76 65 117 123 12 17 44 47
71 69 88 69 209 224 271 348 l56 113 1 -207 c0 -181 -2 -212 -19 -251 -26 -61
-152 -208 -273 -319 -87 -79 -189 -174 -323 -301 -28 -27 -132 -96 -328 -219
-42 -26 -143 -83 -225 -126 l-147 -77 -75 2 c-81 2 -131 12 -310 66 -63 19
-198 53 -300 76 -171 39 -249 62 -525 157 -237 82 -403 172 -483 263 -32 36
-162 220 -162 229 0 4 -23 39 -51 77 -84 115 -133 194 -186 305 -69 145 -145
355 -92 255 34 -66 150 -233 209 -304 63 -74 129 -125 156 -119 16 3 12 10
-24 50 -48 51 -60 84 -67 173 -6 69 -14 200 -15 230 -1 19 -1 19 -15 1 -10
-13 -13 -41 -11 -100 2 -44 1 -72 -1 -61 -3 11 -9 25 -13 30 -4 6 -16 44 -25
85 -10 41 -24 94 -31 118 -19 58 -18 75 6 90 18 11 20 10 20 -9 0 -13 4 -18
12 -13 8 5 9 2 4 -11 -4 -11 -10 -38 -13 -62 -5 -37 -3 -43 12 -43 10 0 25 8
34 18 21 24 152 122 162 122 5 0 8 -3 8 -7 -5 -31 3 -36 21 -13 11 14 20 31
20 37 0 16 85 58 220 110 87 34 129 44 245 57 141 16 215 32 215 48 0 4 -10 8
-22 9 -22 0 -22 1 2 10 13 6 36 9 50 8 49 -3 54 -1 39 17 -7 8 -30 24 -50 35
-21 10 -42 25 -46 32 -23 39 -130 67 -253 67 -189 -1 -320 -31 -320 -74 0 -13
2 -25 5 -28 3 -3 38 3 77 13 104 28 142 25 120 -7 -12 -20 -222 -40 -251 -24
-22 11 -104 -5 -157 -30 -23 -11 -63 -44 -90 -72 -27 -28 -62 -65 -77 -81 -16
-17 -32 -26 -36 -21 -5 5 -16 52 -25 104 -9 52 -25 145 -35 205 -22 125 -47
372 -57 552 l-7 123 79 74 c99 92 144 130 149 125 2 -2 -3 -31 -11 -64 -21
-90 -84 -381 -100 -460 -16 -82 -17 -95 -5 -95 8 0 23 49 111 380 27 102 54
201 60 220 5 19 12 45 15 56 12 44 235 154 349 172 l58 9 19 -44 c10 -25 19
-48 19 -53 0 -16 129 -349 174 -449 95 -210 219 -441 238 -441 15 0 8 20 -30
88 -117 208 -363 842 -347 893 4 10 -2 30 -14 46 -44 62 -140 490 -185 823
-14 102 -31 284 -37 405 -11 197 -11 233 5 340 27 193 71 400 115 550 78 264
223 600 268 620 15 6 21 16 18 26 -4 11 10 30 40 57 25 22 45 42 45 46 0 3
-13 6 -28 6 -37 0 -109 -48 -152 -102 -45 -55 -136 -236 -185 -365 -21 -57
-40 -102 -42 -100 -1 2 6 36 18 76 11 41 18 76 15 78 -9 10 -81 -33 -78 -46 3
-14 -37 -207 -68 -331 -30 -118 -53 -321 -54 -485 0 -149 20 -554 30 -580 3
-7 -3 -16 -15 -20 -15 -5 -21 -17 -25 -58 -3 -29 -9 -99 -15 -157 -6 -59 -24
-182 -41 -275 -17 -94 -35 -192 -40 -220 -5 -27 -29 -142 -54 -255 l-46 -205
-42 -35 c-24 -19 -80 -70 -125 -113 -61 -60 -82 -75 -85 -61 -10 54 24 693 52
950 19 181 149 766 245 1109 20 72 45 166 56 210 41 166 159 492 173 478 4 -4
11 -1 16 7 17 27 11 31 -19 14 -19 -11 -42 -45 -70 -100 -23 -46 -41 -90 -41
-98 0 -8 -4 -17 -9 -20 -4 -3 -14 -26 -21 -52 -7 -25 -20 -53 -28 -61 -15 -14
-47 -110 -111 -330 -25 -85 -50 -141 -37 -83 72 325 97 420 146 556 39 107 39
116 -2 101 -38 -14 -56 -52 -105 -216 -109 -369 -241 -1088 -288 -1566 -3 -27
-7 -68 -10 -90 -15 -116 -36 -555 -34 -728 l1 -197 -51 -74 c-28 -41 -54 -81
-57 -90 -12 -32 12 -14 61 45 l49 60 22 -213 c21 -200 73 -544 94 -619 6 -19
10 -49 10 -67 0 -18 4 -31 8 -28 9 5 24 -54 38 -139 l6 -40 -21 27 c-33 41
-153 269 -161 306 -6 25 -5 35 6 39 8 3 14 13 14 23 0 23 -29 53 -45 46 -20
-7 -90 235 -146 502 -36 174 -46 302 -30 368 16 63 -2 84 -25 28 -50 -119 -15
-428 92 -814 25 -91 50 -173 55 -182 5 -10 16 -64 25 -120 12 -85 19 -106 39
-123 29 -25 49 -93 33 -112 -9 -11 -14 -11 -29 3 -17 15 -19 15 -25 1 -7 -19
2 -37 20 -37 7 0 32 -48 56 -107 24 -60 60 -140 81 -179 36 -65 37 -71 21 -85
-15 -13 -19 -12 -40 13 -13 16 -29 28 -36 28 -22 0 -202 269 -263 395 -11 22
-26 62 -33 88 -7 27 -22 54 -32 60 -73 45 -130 330 -190 952 -20 208 -17 864
5 1050 60 503 137 863 229 1080 76 176 178 372 204 387 6 4 15 20 18 34 4 15
20 46 35 68 15 23 33 56 41 74 7 18 41 63 76 100 61 64 62 68 43 81 -19 13
-18 15 28 48 26 18 85 55 130 80 46 26 81 48 79 51 -6 6 -198 -92 -238 -121
-17 -12 -42 -32 -56 -44 -14 -13 -32 -23 -40 -23 -16 0 -56 -42 -99 -104 -19
-27 -27 -49 -26 -76 2 -32 -4 -44 -30 -68 -46 -40 -68 -74 -120 -182 -131
-271 -270 -690 -327 -985 -24 -122 -37 -309 -23 -327 6 -8 7 -45 2 -103 -16
-173 -27 -477 -23 -628 7 -250 47 -624 90 -832 26 -130 11 -105 -36 60 -74
256 -115 534 -108 735 4 95 9 134 23 162 19 39 16 54 -8 45 -22 -8 -45 -68
-58 -148 -17 -107 -6 -405 20 -550 48 -271 152 -596 268 -832 24 -48 43 -91
43 -94 0 -4 -11 4 -24 16 l-24 23 -17 -32 c-16 -30 -15 -33 8 -63 14 -18 35
-42 47 -55 17 -18 25 -50 41 -160 31 -207 103 -570 163 -822 49 -202 104 -495
129 -685 5 -38 20 -117 34 -175 13 -58 28 -125 32 -149 5 -23 13 -46 19 -50 7
-4 20 -32 31 -61 10 -30 46 -108 79 -172 34 -65 58 -118 54 -118 -8 0 -60 62
-86 103 -21 30 -36 35 -36 10 0 -21 87 -149 123 -179 40 -34 33 -36 -20 -6
-96 52 -341 339 -330 384 4 14 0 22 -12 25 -20 5 -55 58 -57 85 -1 10 -11 26
-22 35 -41 35 -183 332 -272 568 -98 259 -159 464 -194 653 -9 46 -23 107 -31
135 -8 29 -29 140 -47 247 -29 174 -32 217 -33 400 0 170 3 213 17 250 20 52
8 78 -15 33 -35 -67 -49 -187 -46 -379 l4 -184 -23 82 c-43 158 -62 274 -62
377 0 90 2 101 20 111 28 15 26 40 -4 40 -24 0 -24 1 -31 133 -8 142 0 509 16
792 5 94 12 247 15 340 6 156 5 169 -10 155 -8 -9 -20 -39 -26 -68 -15 -82
-38 -321 -46 -477 -7 -145 -16 -193 -28 -139 -10 48 -26 378 -26 555 0 127 -3
170 -14 185 -14 19 -15 19 -23 -1 -14 -34 -7 -332 10 -480 10 -77 27 -187 38
-245 20 -95 22 -144 25 -510 1 -228 9 -506 18 -635 27 -398 27 -391 17 -369
-23 52 -69 325 -106 624 -48 395 -49 433 -50 1058 l0 603 -35 39 c-19 21 -38
36 -42 34 -4 -3 -8 -2 -8 3 0 8 -32 49 -74 93 -54 57 -67 100 -32 100 7 0 25
9 40 21 21 16 34 19 70 14 57 -9 152 11 161 33 14 35 15 61 3 74 -7 7 -13 29
-14 49 -1 33 1 36 29 37 38 1 43 10 52 89 5 47 3 68 -7 80 -11 14 -11 16 3 11
13 -5 18 7 28 65 42 248 198 723 255 776 14 13 30 36 36 52 17 40 25 36 26
-11 0 -22 5 -45 12 -52 9 -9 12 -4 12 22 0 87 218 397 334 474 31 21 61 36 66
34 6 -2 -13 -36 -41 -77 -62 -89 -141 -235 -193 -356 -54 -126 -108 -287 -98
-297 8 -8 132 246 132 271 0 19 82 179 140 272 52 84 151 220 172 238 7 6 42
35 77 65 36 30 68 53 73 50 4 -3 8 -1 8 4 0 5 14 15 30 22 30 13 30 12 35 96
1 18 62 84 78 84 3 0 41 21 84 46 199 119 345 160 451 128 13 -4 22 -2 22 4 0
13 -31 31 -61 37 -10 2 -28 10 -39 18 -18 12 -10 17 98 50 64 20 139 42 166
47 58 13 93 29 61 29 -11 0 -40 -4 -65 -9 -75 -17 -145 -28 -148 -25 -14 13
339 115 399 115 11 0 17 5 14 10 -10 16 -144 10 -219 -10z m2560 -451 c19 -22
19 -22 -3 -8 -13 8 -23 17 -23 21 0 12 6 9 26 -13z m667 -266 c-3 -7 -9 -13
-13 -13 -4 0 -10 6 -13 13 -3 7 3 13 13 13 10 0 16 -6 13 -13z m-4065 -22 c-7
-11 -16 -17 -20 -15 -4 3 -8 0 -8 -7 0 -7 -3 -9 -7 -6 -7 7 26 45 40 46 4 1 2
-8 -5 -18z m3703 -276 c152 -229 268 -538 385 -1021 62 -259 84 -400 89 -572
2 -86 13 -222 23 -302 46 -336 60 -495 69 -802 4 -163 3 -228 -5 -228 -6 0
-14 5 -17 10 -3 6 -13 10 -21 10 -25 0 -15 -37 17 -65 l32 -26 -6 -138 c-3
-76 -10 -148 -17 -160 -7 -14 -15 -122 -20 -284 -5 -144 -21 -372 -35 -507
-23 -222 -35 -297 -35 -227 0 15 -3 27 -7 27 -5 0 -8 168 -8 372 0 428 -20
725 -70 1043 -10 67 -14 205 -14 531 -1 792 -44 1177 -187 1693 -51 183 -62
240 -34 172 6 -16 21 -38 32 -48 21 -18 21 -18 15 22 -10 61 -107 289 -198
464 -81 157 -77 170 12 36z m163 -152 c9 -18 14 -33 12 -33 -6 0 -36 55 -36
66 0 11 5 3 24 -33z m486 7 c0 -5 -2 -10 -4 -10 -3 0 -8 5 -11 10 -3 6 -1 10
4 10 6 0 11 -4 11 -10z m-441 -105 c0 -5 -6 1 -14 15 -8 14 -14 30 -14 35 0 6
6 -1 14 -15 8 -14 14 -29 14 -35z m551 -50 c-7 -9 -15 -13 -19 -10 -3 3 1 10
9 15 21 14 24 12 10 -5z m-510 -40 c0 -5 -5 -3 -10 5 -5 8 -10 20 -10 25 0 6
5 3 10 -5 5 -8 10 -19 10 -25z m667 -17 c-3 -8 -6 -5 -6 6 -1 11 2 17 5 13 3
-3 4 -12 1 -19z m-143 -19 c4 6 16 11 27 11 11 0 17 -4 14 -10 -5 -9 15 -15
38 -11 4 0 7 -3 7 -9 0 -12 26 -14 33 -2 2 4 3 2 1 -4 -1 -7 8 -21 20 -32 l23
-19 11 26 11 26 -6 -27 c-3 -17 -1 -28 6 -28 6 0 11 5 11 12 0 9 3 9 11 1 8
-8 8 -17 0 -32 -7 -12 -8 -21 -2 -21 5 0 12 6 14 13 4 7 8 3 12 -10 4 -13 11
-23 16 -23 5 0 9 -5 9 -12 0 -6 6 -19 14 -27 17 -20 75 -120 83 -143 3 -10 9
-18 14 -18 5 0 9 -5 9 -11 0 -19 131 -281 137 -275 9 9 33 -14 33 -31 0 -7
-10 -17 -22 -22 l-23 -8 23 -7 c12 -4 22 -15 22 -24 0 -9 7 -30 15 -45 12 -23
12 -33 2 -50 -11 -20 -12 -18 -15 24 -3 45 -5 48 -50 68 -58 26 -154 79 -166
92 -15 14 -25 11 -22 -6 5 -31 -22 -207 -33 -218 -12 -12 -104 -13 -145 -3
-19 5 -26 15 -31 48 -4 24 -18 85 -31 136 -13 51 -24 114 -26 140 -2 39 -9 54
-42 90 l-40 43 -3 142 c-3 143 5 204 26 200 6 -2 11 4 11 12 0 8 -4 15 -10 15
-5 0 -10 10 -10 23 0 16 3 18 9 8 6 -9 11 -10 15 -2z m-461 -124 c76 -216 117
-367 148 -545 11 -69 23 -127 25 -129 2 -3 10 1 17 8 8 8 12 42 11 99 -1 65 1
81 8 62 10 -27 38 -149 44 -190 12 -95 36 -275 44 -325 13 -78 23 -544 11
-490 -5 22 -17 94 -26 160 -24 166 -42 242 -66 276 -17 24 -21 48 -24 127 -6
210 -94 621 -200 935 -24 71 -40 126 -36 121 4 -5 24 -54 44 -109z m782 55 c3
-5 1 -10 -4 -10 -6 0 -11 5 -11 10 0 6 2 10 4 10 3 0 8 -4 11 -10z m110 -47
c16 -24 16 -26 1 -20 -12 5 -15 3 -10 -6 4 -6 3 -9 -1 -4 -7 6 -15 57 -9 57 1
0 10 -12 19 -27z m-55 -4 c0 -5 -4 -9 -10 -9 -5 0 -10 7 -10 16 0 8 5 12 10 9
6 -3 10 -10 10 -16z m57 -43 c-7 -6 -24 -17 -39 -23 -25 -11 -28 -11 -28 6 0
25 8 30 45 29 25 -1 30 -4 22 -12z m-479 -114 c2 -7 -3 -12 -12 -12 -9 0 -16
7 -16 16 0 17 22 14 28 -4z m508 -76 c8 -8 14 -20 14 -26 0 -6 6 -8 13 -4 6 4
9 4 5 -1 -4 -4 -2 -15 5 -23 9 -13 9 -14 0 -8 -9 5 -13 1 -13 -10 0 -10 3 -15
6 -11 10 9 28 -14 42 -54 17 -50 15 -55 -11 -22 -22 28 -29 41 -62 120 -10 23
-25 44 -34 46 -13 4 -13 5 2 6 10 0 25 -5 33 -13z m124 -267 c0 -5 -4 -9 -10
-9 -5 0 -10 7 -10 16 0 8 5 12 10 9 6 -3 10 -10 10 -16z m24 -65 c3 -8 2 -12
-4 -9 -6 3 -10 10 -10 16 0 14 7 11 14 -7z m-4580 -566 c19 -84 51 -208 71
-275 19 -67 35 -126 35 -130 0 -5 -17 -10 -37 -11 -21 -2 -47 -5 -58 -8 -52
-13 -194 -70 -228 -92 -22 -13 -41 -21 -44 -19 -2 3 2 31 11 64 8 32 26 105
39 163 14 58 28 119 32 135 4 17 9 39 11 50 1 11 14 78 28 148 14 71 34 189
43 263 l17 134 23 -134 c12 -75 38 -204 57 -288z m4541 372 c-4 -17 -9 -30
-11 -27 -2 2 -1 18 2 36 4 17 9 30 11 27 3 -2 2 -19 -2 -36z m18 -191 c-6 -6
-7 3 -4 23 4 28 6 29 9 9 2 -13 0 -27 -5 -32z m34 11 c-3 -13 1 -21 14 -25 15
-5 18 -12 13 -27 -4 -14 -2 -18 5 -14 6 4 11 0 12 -11 0 -12 5 -8 14 13 8 17
21 37 31 45 16 13 16 12 5 -8 -12 -24 0 -63 20 -63 6 0 3 7 -6 16 -9 9 -13 19
-10 22 3 3 14 -4 26 -16 19 -21 46 -22 34 -1 -4 5 -1 9 4 9 14 0 14 -20 1 -40
-9 -13 -11 -13 -20 0 -9 13 -13 12 -29 -7 -18 -21 -18 -24 -2 -57 16 -36 31
-46 31 -22 0 7 -7 19 -15 26 -8 7 -12 16 -10 21 6 9 70 7 80 -3 9 -9 11 -128
3 -128 -5 0 -8 6 -8 14 0 7 -6 19 -14 25 -11 9 -15 6 -20 -16 -4 -16 -9 -36
-13 -47 -3 -11 -1 -16 5 -12 5 3 13 -1 16 -10 3 -8 12 -12 18 -9 7 4 -3 -8
-22 -26 -31 -29 -35 -31 -39 -14 -2 10 4 24 13 31 15 10 14 12 -8 10 -13 0
-22 -4 -19 -8 7 -12 -22 -9 -34 3 -13 13 -27 -34 -17 -63 4 -14 2 -18 -5 -14
-6 4 -11 12 -11 18 0 6 -6 19 -13 27 -21 25 -67 202 -60 231 3 14 15 35 26 48
11 12 15 22 9 22 -7 0 -12 -6 -13 -12 -1 -7 -5 -2 -10 12 -9 25 -9 25 -5 -2 2
-16 -1 -28 -5 -28 -12 0 -11 57 1 65 6 3 10 15 10 26 0 10 5 19 11 19 6 0 9
-9 6 -20z m-6827 -80 c0 -5 -5 -10 -11 -10 -5 0 -7 5 -4 10 3 6 8 10 11 10 2
0 4 -4 4 -10z m7 -52 c-3 -8 -6 -5 -6 6 -1 11 2 17 5 13 3 -3 4 -12 1 -19z
m-50 -70 c-3 -8 -6 -5 -6 6 -1 11 2 17 5 13 3 -3 4 -12 1 -19z m20 -40 c-3 -7
-5 -2 -5 12 0 14 2 19 5 13 2 -7 2 -19 0 -25z m7086 12 c3 -11 1 -20 -4 -20
-5 0 -9 9 -9 20 0 11 2 20 4 20 2 0 6 -9 9 -20z m-2904 -36 c36 -52 37 -57 15
-52 -13 2 -60 98 -49 98 2 0 17 -20 34 -46z m-4202 -26 c-3 -8 -6 -5 -6 6 -1
11 2 17 5 13 3 -3 4 -12 1 -19z m20 -10 c-3 -8 -6 -5 -6 6 -1 11 2 17 5 13 3
-3 4 -12 1 -19z m6933 -64 c0 -8 -4 -12 -10 -9 -5 3 -10 10 -10 16 0 5 5 9 10
9 6 0 10 -7 10 -16z m35 -65 c-12 -19 -22 -8 -18 19 l4 27 -16 -28 c-24 -41
-30 -26 -9 19 l18 38 13 -33 c8 -18 11 -36 8 -42z m-7028 39 c-3 -8 -6 -5 -6
6 -1 11 2 17 5 13 3 -3 4 -12 1 -19z m4200 10 c5 -7 34 -74 63 -148 29 -74 79
-190 111 -256 63 -130 68 -144 43 -123 -59 49 -394 502 -394 533 0 12 167 6
177 -6z m463 -49 c102 -18 201 -34 220 -38 l35 -6 72 -200 c125 -345 174 -487
171 -496 -2 -5 -37 24 -79 64 -41 39 -100 95 -130 123 -76 72 -242 245 -320
334 -102 116 -209 244 -209 252 0 4 12 5 28 3 15 -3 110 -19 212 -36z m-4703
-1 c-3 -8 -6 -5 -6 6 -1 11 2 17 5 13 3 -3 4 -12 1 -19z m70 -10 c-3 -8 -6 -5
-6 6 -1 11 2 17 5 13 3 -3 4 -12 1 -19z m7160 -20 c-3 -7 -5 -2 -5 12 0 14 2
19 5 13 2 -7 2 -19 0 -25z m-7210 -70 c-3 -8 -6 -5 -6 6 -1 11 2 17 5 13 3 -3
4 -12 1 -19z m7113 -33 c0 -5 -5 -3 -10 5 -5 8 -10 20 -10 25 0 6 5 3 10 -5 5
-8 10 -19 10 -25z m70 -57 c-1 -8 -6 -6 -15 6 -20 26 -19 42 0 22 8 -8 15 -21
15 -28z m-32 -3 c-3 -3 -9 2 -12 12 -6 14 -5 15 5 6 7 -7 10 -15 7 -18z
m-7160 -40 c-3 -3 -9 2 -12 12 -6 14 -5 15 5 6 7 -7 10 -15 7 -18z m-102 -74
c-3 -9 -8 -28 -12 -43 -3 -16 -10 -28 -14 -28 -4 0 -13 -14 -19 -31 -20 -57
-11 -55 18 4 16 32 32 54 35 48 4 -6 3 -19 -3 -28 -5 -10 -7 -48 -4 -86 4 -46
2 -67 -6 -67 -6 0 -11 11 -11 24 0 14 -4 28 -10 31 -5 3 -10 1 -10 -4 0 -6 -4
-11 -9 -11 -20 0 -19 61 4 133 12 41 20 78 17 82 -4 3 1 3 11 -1 10 -4 16 -13
13 -23z m91 -53 c-2 -13 -4 -3 -4 22 0 25 2 35 4 23 2 -13 2 -33 0 -45z m7548
-67 c3 -5 2 -12 -3 -15 -5 -3 -9 1 -9 9 0 17 3 19 12 6z m-105 -26 c-7 -9 -15
-13 -19 -10 -3 3 1 10 9 15 21 14 24 12 10 -5z m-7450 -9 c0 -3 -4 -8 -10 -11
-5 -3 -10 -1 -10 4 0 6 5 11 10 11 6 0 10 -2 10 -4z m-156 -31 c-4 -8 -13 -15
-21 -15 -13 0 -13 3 -3 15 7 8 16 15 21 15 5 0 6 -7 3 -15z m7746 -10 c-7 -9
-15 -13 -17 -11 -7 7 7 26 19 26 6 0 6 -6 -2 -15z m-7599 -38 c-10 -9 -11 -8
-5 6 3 10 9 15 12 12 3 -3 0 -11 -7 -18z m7603 7 c18 -7 22 -44 5 -44 -6 0 -8
7 -5 15 4 10 -2 19 -17 25 -12 5 -17 9 -10 9 6 1 18 -2 27 -5z m-7764 -8 c0
-3 -4 -8 -10 -11 -5 -3 -10 -1 -10 4 0 6 5 11 10 11 6 0 10 -2 10 -4z m157
-58 c-3 -8 -6 -5 -6 6 -1 11 2 17 5 13 3 -3 4 -12 1 -19z m-292 -68 c-3 -5
-12 -10 -18 -10 -7 0 -6 4 3 10 19 12 23 12 15 0z m5611 -232 c7 -58 6 -62 -9
-49 -13 10 -17 30 -16 85 0 83 14 65 25 -36z m-706 10 c0 -10 -105 -60 -200
-96 -4 -2 -10 4 -13 12 -5 11 19 25 96 55 114 45 117 46 117 29z m120 -37 c0
-5 3 -16 6 -25 5 -13 -3 -16 -50 -16 -31 0 -56 5 -56 10 0 6 1 10 3 10 1 0 20
7 42 15 48 17 55 18 55 6z m355 -19 c-3 -3 -11 0 -18 7 -9 10 -8 11 6 5 10 -3
15 -9 12 -12z m-2849 -557 c-11 -8 -25 -15 -30 -15 -6 0 -2 7 8 15 11 8 25 15
30 15 6 0 2 -7 -8 -15z m-1922 -391 c72 -14 93 -15 138 -4 51 11 70 13 142 7
l33 -2 20 -87 c11 -49 16 -88 11 -88 -4 0 -8 5 -8 10 0 20 -49 10 -61 -12 -34
-62 -15 -385 37 -658 79 -419 212 -826 389 -1195 42 -88 95 -198 118 -245 34
-71 102 -171 159 -231 7 -8 47 -53 88 -99 41 -47 77 -87 80 -90 3 -3 16 -18
30 -34 l25 -29 -40 27 c-42 28 -191 162 -285 256 -30 31 -82 76 -115 100 -81
59 -160 139 -234 235 -35 44 -68 87 -74 95 -155 197 -261 393 -303 560 -14 55
-20 68 -22 48 -8 -68 59 -288 145 -478 9 -19 21 -48 28 -65 7 -16 41 -88 74
-159 34 -71 59 -131 56 -134 -3 -3 -13 2 -23 11 -10 10 -24 17 -30 17 -6 0
-30 26 -54 58 -24 31 -53 71 -65 87 -152 202 -248 388 -394 758 -24 61 -92
306 -115 417 -10 47 -21 87 -26 90 -4 3 -13 59 -19 125 -10 95 -10 153 0 280
16 209 29 303 46 329 7 12 15 49 18 83 3 34 8 66 11 72 4 6 30 1 71 -14 35
-14 103 -32 149 -41z m1620 -20 c3 -8 2 -12 -4 -9 -6 3 -10 10 -10 16 0 14 7
11 14 -7z m-2154 -54 c12 -8 14 -63 12 -391 -1 -210 -3 -384 -6 -386 -7 -7
-46 115 -75 237 -34 138 -51 248 -58 370 -7 130 3 168 37 150 26 -14 33 -13
27 4 -3 8 -3 17 0 20 9 9 46 7 63 -4z m160 -54 l65 -21 -3 -85 c-1 -47 -7
-101 -13 -120 -16 -58 -31 -567 -24 -850 6 -259 21 -455 51 -654 8 -54 12
-101 9 -104 -12 -13 -25 20 -51 128 -89 384 -128 771 -141 1393 l-6 337 24 -1
c13 0 53 -11 89 -23z m1598 -49 c23 -28 42 -57 42 -65 0 -7 11 -29 24 -49 14
-19 22 -41 19 -49 -15 -39 51 -625 84 -739 3 -14 2 -17 -5 -10 -15 15 -114
426 -166 690 -25 127 -48 240 -51 253 -8 34 6 26 53 -31z m-868 -22 c0 -20 44
-200 81 -334 17 -63 29 -129 29 -166 0 -98 38 -387 75 -570 19 -94 52 -243 60
-277 4 -16 5 -28 1 -28 -11 0 -128 378 -176 570 -95 380 -144 736 -110 801 13
23 40 25 40 4z m1360 -35 c6 -11 8 -20 6 -20 -3 0 -10 9 -16 20 -6 11 -8 20
-6 20 3 0 10 -9 16 -20z m-1150 -126 c0 -8 23 -75 51 -150 28 -76 74 -223 101
-328 91 -352 206 -661 370 -994 34 -67 59 -124 57 -126 -2 -1 -38 -22 -80 -44
-80 -44 -115 -50 -204 -34 l-39 7 -24 80 c-32 110 -112 407 -112 417 0 4 4 8
8 8 5 0 23 -39 42 -87 54 -144 151 -325 167 -310 3 4 -14 48 -43 112 -66 148
-187 588 -238 870 -30 162 -74 474 -79 557 -3 48 -2 56 10 47 7 -6 13 -18 13
-25z m842 -154 c42 -116 139 -324 198 -423 138 -235 359 -471 574 -616 41 -28
78 -51 82 -51 3 0 -83 89 -193 198 l-199 197 -44 120 c-24 66 -68 168 -98 228
-33 65 -52 115 -49 127 3 11 -3 31 -15 45 -23 30 -21 78 4 83 12 2 27 -12 48
-44 62 -99 252 -301 315 -335 32 -18 229 -100 434 -181 68 -27 136 -55 150
-63 22 -11 168 -53 208 -59 39 -6 132 -147 133 -200 1 -12 9 -39 20 -61 11
-22 19 -52 20 -67 l0 -27 -132 6 c-121 5 -141 8 -222 40 -49 19 -98 33 -109
31 -15 -2 -27 -17 -39 -51 -10 -27 -29 -63 -43 -81 -13 -17 -67 -117 -120
-221 -53 -105 -105 -199 -116 -210 -18 -19 -20 -18 -108 68 -86 85 -114 100
-139 75 -15 -15 -15 -93 2 -186 22 -123 -21 -103 -48 23 -23 107 -58 374 -54
406 6 37 -8 29 -106 -62 -80 -75 -91 -77 -102 -23 -5 28 1 38 74 112 97 98
142 117 198 87 19 -10 51 -37 71 -59 20 -23 79 -88 132 -144 53 -57 100 -110
104 -118 6 -10 -4 -20 -38 -36 -25 -12 -45 -26 -45 -30 0 -7 88 23 112 38 16
10 7 50 -19 89 -67 102 -249 296 -297 319 -79 38 -154 9 -262 -99 -42 -42 -78
-75 -79 -73 -17 17 -65 171 -74 238 -7 47 -32 191 -56 320 -74 397 -115 664
-114 737 0 27 3 41 6 33 3 -8 19 -53 35 -100z m95 31 c65 -64 106 -144 144
-281 10 -36 38 -113 62 -172 25 -60 44 -108 43 -108 -14 0 -176 268 -223 368
-52 110 -105 252 -94 252 4 0 35 -27 68 -59z m4168 -522 c-23 -193 -39 -279
-51 -279 -7 0 5 107 16 145 9 30 32 243 47 430 l8 100 3 -96 c2 -59 -7 -174
-23 -300z m222 249 c-3 -7 -5 -2 -5 12 0 14 2 19 5 13 2 -7 2 -19 0 -25z
m-6177 -258 c20 -112 60 -261 97 -360 50 -135 141 -326 180 -379 19 -25 50
-84 70 -131 20 -47 43 -95 52 -106 9 -12 71 -94 139 -183 67 -89 122 -164 122
-166 0 -13 -55 -3 -80 15 -15 11 -31 16 -35 12 -5 -4 -5 -2 -2 4 8 14 -18 38
-32 30 -5 -4 -57 -10 -114 -15 -103 -8 -106 -8 -169 -54 l-65 -46 -18 52 c-11
29 -18 56 -17 61 2 5 -13 74 -33 155 -19 80 -46 225 -60 321 -14 96 -30 200
-35 230 -24 138 -41 675 -21 640 5 -8 14 -44 21 -80z m5856 -202 c-19 -180
-71 -492 -91 -557 -13 -41 -22 -78 -19 -83 8 -12 -14 -37 -58 -64 -48 -30 -66
-30 -80 1 -9 21 -3 43 42 157 79 200 124 335 184 551 9 31 19 57 23 57 3 0 3
-28 -1 -62z m-2426 -302 c0 -2 -7 -6 -15 -10 -8 -3 -15 -1 -15 4 0 6 7 10 15
10 8 0 15 -2 15 -4z m312 -78 c-6 -7 -25 -21 -44 -31 l-33 -19 35 31 c35 30
62 42 42 19z m-1947 -98 c15 -36 33 -72 41 -81 8 -8 14 -23 14 -33 0 -18 -28
-66 -39 -66 -9 0 -32 109 -36 166 -1 22 -6 51 -10 65 -13 42 2 17 30 -51z
m1850 -70 c-19 -21 -35 -26 -35 -12 0 5 10 14 23 20 31 15 32 14 12 -8z m2315
-115 c0 -7 7 -16 16 -19 8 -3 12 -2 9 4 -3 6 4 10 16 10 17 0 19 -3 10 -14 -9
-11 -9 -16 0 -21 16 -10 5 -70 -33 -185 -37 -112 -68 -150 -122 -150 -32 0
-37 4 -51 38 -9 20 -34 65 -57 100 l-41 62 20 53 c23 59 73 102 109 93 12 -3
24 -3 26 2 2 4 15 17 31 29 28 22 67 21 67 -2z m-4056 -42 c-12 -20 -54 -28
-54 -10 0 7 7 23 16 36 15 21 18 22 33 7 11 -12 13 -21 5 -33z m-1198 -158
c53 -71 128 -168 165 -215 37 -46 66 -86 64 -88 -2 -3 -19 5 -38 17 -31 19
-35 20 -41 5 -4 -9 -4 -26 0 -38 12 -39 -43 22 -80 88 -43 78 -163 318 -177
354 -13 35 -9 30 107 -123z m4994 81 c0 -8 -4 -17 -9 -21 -12 -7 -24 12 -16
25 9 15 25 12 25 -4z m-545 -58 c-8 -61 -12 -68 -25 -48 -12 19 -12 42 0 74
17 47 33 31 25 -26z m-3676 29 c15 -19 4 -27 -36 -27 -38 0 -43 12 -10 28 30
14 33 14 46 -1z m924 -106 c20 -19 37 -38 37 -42 0 -9 -99 -43 -106 -37 -6 7
-24 107 -24 136 l0 25 28 -24 c15 -13 44 -39 65 -58z m-983 35 c0 -3 -18 -15
-40 -27 -42 -24 -53 -49 -21 -49 10 0 48 14 84 30 80 36 90 37 107 6 28 -54
-18 -139 -96 -177 -50 -24 -107 -22 -195 7 -39 12 -50 22 -73 63 -14 27 -26
51 -26 54 0 13 137 82 175 88 51 8 85 10 85 5z m-263 -12 c-3 -3 -12 -4 -19
-1 -8 3 -5 6 6 6 11 1 17 -2 13 -5z m4587 -94 c-8 -7 -64 58 -64 73 1 6 16 -6
35 -28 18 -22 31 -42 29 -45z m-3125 -223 c200 -214 360 -400 585 -685 40 -51
69 -77 97 -88 21 -9 39 -18 39 -20 0 -2 -23 -32 -51 -66 -27 -35 -86 -116
-130 -180 -44 -65 -84 -118 -89 -118 -13 0 -193 194 -274 295 -107 135 -178
242 -165 251 7 4 9 21 5 45 -9 55 -66 210 -76 204 -4 -3 0 -27 11 -55 36 -96
1 -49 -44 58 -55 129 -118 302 -111 302 20 0 48 -28 69 -70 24 -47 45 -65 45
-37 0 6 -15 39 -33 72 -24 43 -44 65 -69 78 -27 13 -38 26 -43 50 -4 18 -13
41 -19 52 -31 49 -27 64 22 89 l47 24 30 -35 c16 -19 86 -94 154 -166z m-2061
64 c18 -11 -21 -56 -107 -126 -36 -29 -91 -76 -121 -104 -30 -28 -58 -51 -61
-51 -7 0 -38 70 -65 149 l-19 53 43 38 c24 22 55 41 70 43 52 8 247 7 260 -2z
m-366 -251 l40 -85 -22 -60 c-12 -33 -28 -75 -35 -94 -11 -29 -9 -43 11 -110
13 -42 24 -79 24 -83 0 -4 -12 -3 -27 3 -16 6 -52 8 -83 5 -48 -5 -58 -3 -81
16 -70 61 -123 103 -130 106 -17 7 -9 32 31 96 68 113 224 320 228 305 2 -8
22 -52 44 -99z m1792 75 c11 -8 16 -18 12 -22 -3 -4 -16 3 -28 15 -25 25 -13
29 16 7z m4062 -92 c21 -38 41 -70 44 -73 3 -3 23 -40 44 -82 36 -72 38 -82
34 -143 -4 -43 -2 -65 5 -65 7 0 7 -4 -1 -12 -16 -16 -15 -45 1 -51 7 -2 0
-10 -15 -17 -27 -13 -32 -25 -29 -62 1 -10 -2 -18 -7 -18 -6 0 -13 -12 -17
-27 l-7 -28 -18 40 c-10 22 -19 52 -19 67 -1 15 -5 37 -10 50 -5 13 -12 52
-16 86 -3 34 -12 100 -19 148 -14 90 -21 254 -12 254 3 0 22 -30 42 -67z
m-1871 -63 c3 -6 -1 -7 -9 -4 -18 7 -21 14 -7 14 6 0 13 -4 16 -10z m-115 -22
c0 -4 -4 -8 -9 -8 -6 0 -12 4 -15 8 -3 5 1 9 9 9 8 0 15 -4 15 -9z m-103 -53
c13 -9 27 -32 34 -53 9 -31 7 -46 -11 -95 -24 -65 -55 -91 -106 -91 -41 0 -79
33 -88 76 -7 37 34 128 71 158 31 24 70 26 100 5z m1953 -181 c0 -8 -5 -12
-10 -9 -6 4 -8 11 -5 16 9 14 15 11 15 -7z m380 -9 c0 -13 -29 -35 -45 -35 -3
0 2 14 10 30 16 30 35 33 35 5z m0 -45 c0 -5 -7 -10 -16 -10 -8 0 -12 5 -9 10
3 6 10 10 16 10 5 0 9 -4 9 -10z m950 -65 c33 -72 75 -325 85 -500 4 -79 3
-93 -6 -66 -5 18 -12 32 -13 30 -2 -2 -9 -51 -16 -108 -22 -197 -157 -770
-188 -803 -19 -20 -20 801 -1 901 7 37 8 66 3 70 -45 31 -123 178 -124 231 0
16 18 46 48 81 54 63 130 169 152 212 13 27 15 27 28 10 8 -10 22 -36 32 -58z
m-130 19 c0 -7 -54 -76 -87 -113 -32 -34 -30 -4 3 44 34 51 84 92 84 69z
m-6947 -38 c37 -15 97 -79 97 -103 0 -11 -4 -13 -12 -6 -101 76 -137 107 -132
114 7 12 9 11 47 -5z m102 -207 c63 -44 120 -90 126 -101 6 -12 9 -43 7 -69
-6 -60 -44 -113 -92 -129 -19 -6 -38 -20 -41 -31 -4 -10 -9 -19 -13 -19 -41 0
-268 -33 -304 -44 -36 -11 -48 -11 -48 -2 0 13 35 106 63 166 112 246 147 308
174 309 6 1 64 -35 128 -80z m4242 -346 c34 -21 65 -43 67 -50 6 -14 -64 -151
-102 -200 -21 -29 -29 -33 -54 -28 -16 4 -35 2 -42 -4 -14 -12 -105 8 -157 34
-34 18 -32 22 29 108 28 39 40 48 59 44 20 -4 23 0 24 24 1 16 3 34 4 39 1 6
3 15 4 20 0 6 6 10 12 10 6 0 22 9 36 20 35 27 47 26 120 -17z m2787 -543
c-15 -85 -74 -244 -114 -307 -10 -16 -11 -15 -7 7 2 14 16 66 31 115 33 112
70 273 88 385 l13 85 3 -95 c2 -58 -3 -132 -14 -190z m-7504 -324 c-16 -16
-20 109 -4 142 6 11 10 -8 12 -57 2 -43 -2 -79 -8 -85z m1494 -120 c-6 -16
-24 -23 -24 -8 0 10 22 33 27 28 2 -2 1 -11 -3 -20z m5486 -231 c0 -29 -12
-32 -34 -9 -19 19 -12 34 15 34 14 0 19 -7 19 -25z m-5370 -10 c15 -18 47 -20
53 -2 3 9 10 7 23 -5 18 -17 18 -18 -4 -18 -15 0 -20 -4 -15 -16 4 -11 8 -12
13 -4 6 9 20 4 53 -19 25 -17 54 -31 64 -31 31 0 68 -58 68 -106 0 -24 -3 -38
-7 -31 -6 9 -10 8 -18 -3 -13 -20 -12 -39 1 -20 8 11 9 8 4 -13 -3 -17 -2 -26
4 -23 11 7 20 -14 14 -31 -3 -6 -12 -9 -21 -6 -11 3 -13 2 -6 -4 11 -7 18 -39
15 -72 -1 -11 -5 -10 -16 5 -12 16 -14 17 -15 2 0 -9 -6 -23 -14 -31 -8 -8
-14 -22 -13 -33 1 -10 -5 -19 -13 -19 -10 0 -14 -10 -13 -28 1 -16 -2 -25 -8
-21 -5 3 -16 0 -24 -6 -8 -6 -19 -9 -25 -5 -5 3 -10 1 -10 -4 0 -6 5 -11 10
-11 18 0 10 -22 -10 -27 -22 -6 -27 -23 -7 -24 8 0 7 -3 -2 -6 -8 -3 -26 -19
-39 -35 -13 -15 -29 -27 -36 -26 -6 1 -21 -3 -34 -10 -16 -10 -21 -19 -16 -36
3 -14 -1 -27 -10 -35 -11 -9 -16 -10 -16 -2 0 6 -4 11 -8 11 -5 0 -8 -8 -8
-17 1 -10 -3 -19 -8 -20 -5 0 -13 -8 -18 -17 -7 -12 -14 -13 -34 -6 -19 7 -23
7 -18 -2 5 -8 2 -9 -10 -5 -11 5 -25 -2 -40 -18 -13 -14 -28 -25 -35 -25 -6 0
-11 -9 -11 -20 0 -16 -6 -19 -31 -16 -19 2 -32 -1 -36 -10 -3 -8 -15 -14 -28
-14 -13 0 -25 -7 -29 -15 -3 -8 -13 -15 -23 -15 -10 0 -37 -9 -61 -20 -23 -10
-44 -18 -46 -17 -1 1 -10 -4 -19 -12 -9 -7 -23 -11 -31 -8 -7 3 -35 -5 -62
-19 -56 -28 -54 -28 -54 -11 0 8 -13 14 -32 14 -90 2 -142 12 -155 28 -8 12
-29 19 -63 20 -59 4 -76 15 -85 56 -5 24 -12 29 -36 29 -16 0 -29 5 -29 10 0
6 9 10 20 10 15 0 20 7 20 29 0 20 9 36 29 52 18 14 26 26 19 30 -6 4 -2 10
11 14 11 3 21 13 21 21 0 8 5 14 10 14 6 0 10 8 10 18 1 21 23 52 38 52 7 0
11 10 9 23 -1 14 3 21 11 19 8 -1 16 7 19 18 3 11 18 27 34 36 16 8 29 22 29
30 0 11 6 15 20 11 25 -6 27 8 3 18 -17 6 -17 7 0 20 11 8 25 11 33 8 9 -3 14
1 14 12 0 10 8 24 18 31 10 8 12 13 5 14 -7 0 -13 4 -13 9 0 5 9 7 21 4 12 -4
18 -11 15 -20 -10 -25 14 -2 40 38 13 21 29 39 36 39 6 0 27 12 47 27 20 16
43 26 50 25 13 -3 13 -1 2 12 -11 14 -11 16 3 16 9 0 16 5 16 10 0 6 10 10 23
10 18 0 19 2 7 10 -13 8 -12 10 3 10 9 0 17 5 17 10 0 6 -8 10 -17 10 -17 1
-17 1 0 11 9 5 17 20 17 32 0 17 2 19 10 7 5 -9 5 -19 -1 -26 -6 -8 -4 -14 7
-18 25 -10 34 -7 28 9 -4 11 1 15 17 15 48 0 69 11 69 36 0 13 4 24 10 24 5 0
7 -7 4 -15 -4 -9 0 -15 10 -15 9 0 16 5 16 10 0 6 6 10 14 10 7 0 16 10 19 21
4 16 11 20 26 16 12 -3 21 -1 21 4 0 5 4 9 10 9 5 0 7 -8 3 -17 -5 -15 -3 -15
14 2 11 11 18 27 15 35 -5 11 -2 11 12 -2 21 -22 21 -22 39 -3 8 8 21 16 28
17 8 2 20 11 27 21 16 21 26 22 42 2z m5015 -20 c14 -17 75 -37 75 -24 0 5 6
9 14 9 8 0 18 9 21 21 6 19 8 19 24 5 10 -9 24 -16 32 -16 12 0 11 2 -1 11
-13 9 -13 10 0 6 8 -2 14 -14 13 -26 -3 -23 12 -29 20 -8 3 6 6 3 6 -8 1 -17
8 -20 45 -20 24 0 48 3 52 8 15 14 35 7 30 -10 -7 -23 14 -58 34 -58 8 0 16
-10 18 -22 2 -13 8 -23 14 -23 6 0 8 -12 5 -28 -6 -31 23 -88 38 -75 4 5 5
-16 2 -45 -4 -34 -15 -64 -32 -86 -14 -18 -25 -38 -25 -44 0 -7 -4 -12 -10
-12 -5 0 -10 -12 -10 -27 -1 -24 -2 -25 -11 -11 -7 12 -19 16 -42 14 -18 -2
-35 1 -39 7 -4 6 -10 9 -13 5 -3 -3 1 -13 10 -22 15 -15 15 -16 -4 -16 -12 0
-21 -6 -21 -13 0 -8 -11 -19 -25 -25 -23 -10 -29 -9 -49 11 -19 19 -28 22 -42
14 -13 -7 -19 -7 -22 1 -5 15 -32 16 -32 1 0 -6 -7 -4 -15 5 -11 10 -26 13
-52 9 -34 -6 -36 -5 -31 20 3 15 1 24 -3 21 -12 -7 -11 3 2 49 6 21 7 52 4 68
l-7 30 -29 -37 c-16 -20 -29 -43 -29 -50 0 -20 -21 -28 -31 -13 -8 12 -11 12
-19 -1 -8 -13 -10 -12 -10 3 0 19 -20 24 -21 5 0 -7 -5 -2 -10 11 -5 14 -7 31
-5 38 3 8 -2 13 -14 13 -10 0 -22 5 -25 10 -11 18 -32 11 -39 -12 -4 -18 -8
-20 -17 -11 -9 9 -9 15 0 27 8 10 9 16 1 21 -5 3 -10 0 -10 -7 -1 -8 -4 -7
-10 3 -6 10 -33 25 -61 35 -52 19 -75 37 -65 52 6 10 122 37 143 33 6 -1 14 3
18 9 3 5 17 10 30 10 30 0 40 16 38 62 -2 39 11 59 21 32 3 -8 1 -25 -5 -36
-6 -11 -8 -22 -5 -25 3 -3 9 3 13 13 15 40 69 60 75 27 2 -13 6 -10 15 10 11
24 10 27 -5 27 -12 0 -13 3 -5 8 7 4 14 17 16 27 5 34 17 46 40 39 12 -4 26
-12 32 -19z m-5209 -22 c-10 -10 -19 5 -10 18 6 11 8 11 12 0 2 -7 1 -15 -2
-18z m6094 2 c0 -8 -4 -15 -10 -15 -5 0 -10 7 -10 15 0 8 5 15 10 15 6 0 10
-7 10 -15z m-1030 -40 c0 -8 -4 -15 -10 -15 -5 0 -7 7 -4 15 4 8 8 15 10 15 2
0 4 -7 4 -15z m1070 5 c25 -27 100 -80 114 -80 9 0 16 -6 16 -14 0 -8 7 -16
15 -20 8 -3 15 -12 15 -21 0 -11 -8 -14 -30 -12 -17 2 -33 7 -37 10 -3 4 -34
7 -68 7 -47 0 -66 4 -77 18 -26 29 -29 62 -7 85 14 16 16 23 7 29 -8 5 -2 8
17 6 17 -2 32 -5 35 -8z m-1260 -65 c0 -8 -4 -15 -10 -15 -5 0 -10 7 -10 15 0
8 5 15 10 15 6 0 10 -7 10 -15z m820 -20 c0 -8 -4 -15 -10 -15 -5 0 -10 7 -10
15 0 8 5 15 10 15 6 0 10 -7 10 -15z m-57 -80 c-3 -9 -8 -14 -10 -11 -3 3 -2
9 2 15 9 16 15 13 8 -4z m-6434 -104 c2 -26 -13 -1 -16 27 -2 23 -1 24 7 7 5
-11 9 -26 9 -34z m298 -8 c13 -20 13 -21 -7 -16 -13 4 -19 11 -16 20 5 11 0
13 -17 8 -17 -5 -19 -4 -7 4 19 14 30 10 47 -16z m5468 -63 c3 -5 1 -10 -4
-10 -6 0 -11 5 -11 10 0 6 2 10 4 10 3 0 8 -4 11 -10z m-112 -37 c-5 -11 -33
-19 -33 -9 0 2 -3 11 -6 19 -3 10 1 17 13 19 21 5 33 -9 26 -29z m-4459 -48
c-4 -8 -1 -15 5 -15 6 0 11 -7 11 -15 0 -8 -4 -15 -9 -15 -10 0 -22 40 -15 52
9 14 14 9 8 -7z m126 -85 c0 -5 -5 -10 -11 -10 -5 0 -7 5 -4 10 3 6 8 10 11
10 2 0 4 -4 4 -10z m205 -40 c3 -5 1 -10 -4 -10 -6 0 -11 5 -11 10 0 6 2 10 4
10 3 0 8 -4 11 -10z m5955 -50 c0 -5 -4 -10 -10 -10 -5 0 -10 5 -10 10 0 6 5
10 10 10 6 0 10 -4 10 -10z m-7568 -112 c-9 -9 -12 -7 -12 12 0 19 3 21 12 12
9 -9 9 -15 0 -24z m-12 -31 c9 -3 4 -6 -12 -6 -27 -1 -35 8 -21 22 4 4 9 3 12
-1 3 -5 13 -12 21 -15z m-70 -57 c0 -5 -4 -10 -10 -10 -5 0 -10 5 -10 10 0 6
5 10 10 10 6 0 10 -4 10 -10z"/>
<path d="M8090 9350 c0 -5 5 -10 10 -10 6 0 10 5 10 10 0 6 -4 10 -10 10 -5 0
-10 -4 -10 -10z"/>
<path d="M8130 9349 c0 -5 5 -7 10 -4 6 3 10 8 10 11 0 2 -4 4 -10 4 -5 0 -10
-5 -10 -11z"/>
<path d="M8875 8170 c-4 -12 -3 -26 3 -32 12 -12 23 25 12 42 -6 9 -10 6 -15
-10z"/>
<path d="M8790 8084 c0 -8 5 -12 10 -9 6 4 8 11 5 16 -9 14 -15 11 -15 -7z"/>
<path d="M8805 8060 c-3 -5 -1 -10 4 -10 6 0 11 5 11 10 0 6 -2 10 -4 10 -3 0
-8 -4 -11 -10z"/>
<path d="M1630 7450 c0 -5 5 -10 11 -10 5 0 7 5 4 10 -3 6 -8 10 -11 10 -2 0
-4 -4 -4 -10z"/>
<path d="M8485 1030 c3 -5 8 -10 11 -10 2 0 4 5 4 10 0 6 -5 10 -11 10 -5 0
-7 -4 -4 -10z"/>
<path d="M8016 981 c-4 -7 -5 -15 -2 -18 9 -9 19 4 14 18 -4 11 -6 11 -12 0z"/>
<path d="M3914 10265 c-10 -8 -14 -15 -7 -15 19 0 43 11 43 21 0 13 -14 11
-36 -6z"/>
<path d="M6790 9958 c0 -6 7 -19 15 -28 8 -9 46 -101 85 -205 38 -105 74 -199
80 -210 73 -154 221 -596 284 -850 94 -376 156 -837 156 -1159 0 -96 3 -127
11 -119 18 18 23 297 10 488 -30 427 -108 819 -244 1220 -89 262 -307 787
-350 840 -28 35 -47 45 -47 23z"/>
<path d="M7336 8982 c-4 -7 -3 -36 3 -65 17 -83 68 -506 85 -702 28 -322 36
-514 36 -890 0 -396 -8 -578 -41 -880 -24 -224 -40 -324 -31 -190 4 50 6 214
6 365 0 257 -11 423 -44 680 -5 41 -16 134 -24 206 -17 140 -30 194 -46 178
-7 -7 -5 -46 4 -110 41 -276 66 -696 66 -1113 0 -289 2 -342 14 -338 11 4 13
-3 9 -34 -3 -21 -3 -39 1 -39 27 0 89 363 117 685 28 336 26 957 -5 1315 -20
225 -29 299 -66 550 -46 305 -68 407 -84 382z"/>
<path d="M2631 8266 c-7 -32 -11 -60 -8 -62 7 -7 30 93 25 107 -2 7 -10 -14
-17 -45z"/>
<path d="M4135 6761 c-60 -13 -28 -24 80 -28 256 -9 285 -9 282 2 -8 25 -276
45 -362 26z"/>
<path d="M6456 6759 c-3 -8 -13 -36 -22 -64 -19 -56 -33 -272 -16 -262 5 4 12
37 16 74 4 38 15 109 26 158 10 51 14 94 9 99 -5 6 -10 4 -13 -5z"/>
<path d="M6632 6733 c-12 -51 -30 -156 -37 -223 -4 -30 -9 -63 -11 -72 -3 -10
-1 -18 4 -18 15 0 72 251 72 317 0 45 -17 42 -28 -4z"/>
<path d="M6741 6729 c-16 -42 -41 -196 -40 -251 1 -46 3 -38 19 57 10 61 23
132 29 159 12 53 8 73 -8 35z"/>
<path d="M6846 6718 c-3 -13 -13 -63 -22 -113 -8 -49 -18 -103 -21 -120 -3
-16 -2 -27 2 -23 16 15 65 267 54 274 -5 3 -11 -5 -13 -18z"/>
<path d="M6516 6598 c-28 -211 -28 -206 -17 -181 6 12 17 73 26 135 8 62 18
128 21 146 4 17 2 32 -3 32 -5 0 -17 -60 -27 -132z"/>
<path d="M6356 6692 c-4 -7 -11 -38 -16 -70 -5 -31 -12 -76 -15 -99 -5 -31 -4
-43 4 -43 7 0 10 4 6 9 -3 5 4 49 15 97 21 87 23 133 6 106z"/>
<path d="M4118 6138 c-3 -7 -2 -71 2 -143 l7 -130 1 143 c2 135 0 158 -10 130z"/>
<path d="M4011 5980 c2 -77 7 -140 11 -140 4 0 7 63 7 140 0 90 -4 140 -11
140 -7 0 -9 -48 -7 -140z"/>
<path d="M3935 6070 c-9 -14 3 -228 14 -280 5 -19 6 37 3 125 -2 88 -6 161 -7
163 -2 2 -6 -2 -10 -8z"/>
<path d="M3861 5920 c1 -69 4 -150 9 -180 5 -40 8 -11 8 110 1 92 -3 172 -8
180 -7 10 -9 -26 -9 -110z"/>
<path d="M5320 5995 c0 -8 5 -15 10 -15 6 0 10 7 10 15 0 8 -4 15 -10 15 -5 0
-10 -7 -10 -15z"/>
<path d="M5974 5666 c-16 -24 -51 -63 -79 -85 -90 -75 -317 -170 -443 -186
-29 -4 -51 -9 -48 -12 12 -12 160 22 269 63 173 64 296 144 333 215 32 63 8
67 -32 5z"/>
<path d="M5040 5441 c0 -12 26 -38 53 -53 12 -6 67 -12 122 -14 l100 -3 -77 8
c-58 6 -91 16 -132 40 -61 34 -66 36 -66 22z"/>
<path d="M5348 5383 c6 -2 18 -2 25 0 6 3 1 5 -13 5 -14 0 -19 -2 -12 -5z"/>
<path d="M9139 4817 c-2 -10 -4 -17 -18 -66 -18 -64 -7 -60 13 5 10 31 15 58
12 62 -3 3 -7 2 -7 -1z"/>
<path d="M6470 4496 c0 -20 29 -27 89 -25 70 3 81 14 27 28 -64 16 -116 14
-116 -3z"/>
<path d="M7052 4170 c0 -14 2 -19 5 -12 2 6 2 18 0 25 -3 6 -5 1 -5 -13z"/>
<path d="M7011 3947 c-46 -255 -43 -236 -32 -212 15 30 77 382 69 390 -2 3
-19 -78 -37 -178z"/>
<path d="M5502 3982 c-7 -5 -16 -26 -19 -48 -3 -21 -12 -48 -19 -59 -7 -11
-20 -51 -30 -89 -14 -58 -15 -69 -3 -77 13 -8 6 -13 -13 -10 -5 0 -8 -12 -8
-27 0 -28 -23 -119 -40 -157 -5 -11 -25 -78 -46 -150 -42 -151 -69 -223 -92
-248 -20 -22 -3 -42 27 -32 28 9 55 49 84 127 43 113 103 358 94 382 -3 6 1
23 9 37 7 13 13 34 14 45 0 12 7 35 15 50 8 16 15 37 15 47 0 11 9 30 20 44
11 14 23 47 26 74 5 39 10 49 25 49 21 0 25 20 7 38 -14 14 -47 16 -66 4z
m-59 -337 c-3 -9 -8 -14 -10 -11 -3 3 -2 9 2 15 9 16 15 13 8 -4z"/>
<path d="M1770 3496 c0 -2 7 -9 15 -16 13 -11 14 -10 9 4 -5 14 -24 23 -24 12z"/>
<path d="M1683 2702 c-15 -12 -25 -36 -33 -81 -6 -34 -9 -65 -7 -67 2 -3 18
33 35 78 17 45 30 83 29 84 -1 2 -12 -5 -24 -14z"/>
<path d="M9992 280 c-17 -28 -15 -41 14 -109 25 -57 54 -81 54 -45 0 20 -40
156 -49 166 -4 4 -12 -1 -19 -12z"/>
</g>
</svg>
